<?xml version="1.0" encoding="UTF-8"?>
<!DOCTYPE svg>
<svg version="1.1" xmlns="http://www.w3.org/2000/svg" xmlns:xlink="http://www.w3.org/1999/xlink" id='SVGPLOT_KU_PCA301_01_plot'  width="800px" height="160px">
<style type="text/css"><![CDATA[
.background { fill:#FFFFE7; }

text       { font-family:Times; font-size:12px; }
text.title { font-size:16px; }
text.legend { cursor:pointer; }
circle#svgmarker { color:#278727; opacity:0.5; }

path.SVGplot     { stroke:black; fill:none; }
rect.SVGplot     { stroke:black; fill:none; }
polyline.SVGplot { stroke:black; fill:none; }
.border  { stroke:black; fill:url(#gr_bg); }
.vgrid   { stroke:gray;  stroke-dasharray:2,6; }
.hgrid   { stroke:gray;  stroke-dasharray:2,6; }
.pasted  { stroke:black; stroke-dasharray:1,1; }

.SVGplot.l0     { stroke:red;     }
.SVGplot.l1     { stroke:green;   }
.SVGplot.l2     { stroke:blue;    }
.SVGplot.l3     { stroke:magenta; }
.SVGplot.l4     { stroke:brown;   }
.SVGplot.l5     { stroke:black;   }
.SVGplot.l6     { stroke:olive;   }
.SVGplot.l7     { stroke:gray;    }
.SVGplot.l8     { stroke:yellow;  }
.SVGplot.l0fill { stroke:#f00; fill:url(#gr_0); }
.SVGplot.l1fill { stroke:#291; fill:url(#gr_1); }
.SVGplot.l2fill { stroke:#00f; fill:url(#gr_2); }
.SVGplot.l3fill { stroke:#f0f; fill:url(#gr_3); }
.SVGplot.l4fill { stroke:#ff0; fill:url(#gr_4); }
.SVGplot.l5fill { stroke:#0ff; fill:url(#gr_5); }
.SVGplot.l6fill { stroke:#000; fill:url(#gr_6); }
.SVGplot.l0dot  { stroke:red;   stroke-dasharray:2,4; }
.SVGplot.l1dot  { stroke:green; stroke-dasharray:2,4; }
.SVGplot.l0fill_stripe { stroke:red; fill:url(#gr0_stripe);}
.SVGplot.l1fill_stripe { stroke:green; fill:url(#gr1_stripe);}
.SVGplot.l0fill_gyr    { stroke:red; fill:url(#gr0_gyr);}

text.SVGplot.l0     { stroke:none; fill:red;     } 
text.SVGplot.l1     { stroke:none; fill:green;   } 
text.SVGplot.l2     { stroke:none; fill:blue;    }
text.SVGplot.l3     { stroke:none; fill:magenta; }
text.SVGplot.l4     { stroke:none; fill:brown;   }
text.SVGplot.l5     { stroke:none; fill:black;   }
text.SVGplot.l6     { stroke:none; fill:olive;   }
text.SVGplot.l7     { stroke:none; fill:gray;    }
text.SVGplot.l8     { stroke:none; fill:yellow;  }
text.SVGplot.l0fill { stroke:none; fill:#f00;    }
text.SVGplot.l1fill { stroke:none; fill:#291;    }
text.SVGplot.l2fill { stroke:none; fill:#00f;    }
text.SVGplot.l3fill { stroke:none; fill:#f0f;    }
text.SVGplot.l4fill { stroke:none; fill:#ff0;    }
text.SVGplot.l5fill { stroke:none; fill:#0ff;    }
text.SVGplot.l6fill { stroke:none; fill:#000;    }
text.SVGplot.l0dot  { stroke:none; fill:red;     } 
text.SVGplot.l1dot  { stroke:none; fill:green;   } 
text.SVGplot.l0fill_stripe {stroke:none; fill:red;  }
text.SVGplot.l1fill_stripe {stroke:none; fill:green;}
text.SVGplot.l0fill_gyr    {stroke:none; fill:red;  }

]]></style>
<!-- will be included in each svg plot -->
<defs>
  <linearGradient id="gr_bg" x1="0%" y1="0%" x2="0%" y2="100%">
    <stop offset="0%"   style="stop-color:#FFFFF7; stop-opacity:1"/>
    <stop offset="100%" style="stop-color:#FFFFC7; stop-opacity:1"/>
  </linearGradient>

  <linearGradient id="gr_0" x1="0%" y1="0%" x2="0%" y2="100%">
    <stop offset="0%"   style="stop-color:#f00; stop-opacity:.6"/>
    <stop offset="100%" style="stop-color:#f88; stop-opacity:.4"/>
  </linearGradient>

  <linearGradient id="gr_1" x1="0%" y1="0%" x2="0%" y2="100%">
    <stop offset="0%"   style="stop-color:#291; stop-opacity:.6"/>
    <stop offset="100%" style="stop-color:#8f7; stop-opacity:.4"/>
  </linearGradient>

  <linearGradient id="gr_2" x1="0%" y1="0%" x2="0%" y2="100%">
    <stop offset="0%"   style="stop-color:#00f; stop-opacity:.6"/>
    <stop offset="100%" style="stop-color:#88f; stop-opacity:.4"/>
  </linearGradient>

  <linearGradient id="gr_3" x1="0%" y1="0%" x2="0%" y2="100%">
    <stop offset="0%"   style="stop-color:#f0f; stop-opacity:.6"/>
    <stop offset="100%" style="stop-color:#f8f; stop-opacity:.4"/>
  </linearGradient>

  <linearGradient id="gr_4" x1="0%" y1="0%" x2="0%" y2="100%">
    <stop offset="0%"   style="stop-color:#ff0; stop-opacity:.6"/>
    <stop offset="100%" style="stop-color:#ff8; stop-opacity:.4"/>
  </linearGradient>

  <linearGradient id="gr_5" x1="0%" y1="0%" x2="0%" y2="100%">
    <stop offset="0%"   style="stop-color:#0ff; stop-opacity:.6"/>
    <stop offset="100%" style="stop-color:#8ff; stop-opacity:.4"/>
  </linearGradient>

  <linearGradient id="gr_6" x1="0%" y1="0%" x2="0%" y2="100%">
    <stop offset="0%"   style="stop-color:#000; stop-opacity:.6"/>
    <stop offset="100%" style="stop-color:#ccc; stop-opacity:.4"/>
  </linearGradient>

  <pattern id="gr0_stripe" width="4" height="4"
           patternUnits="userSpaceOnUse" patternTransform="rotate(-45 2 2)">
      <path d="M -1,2 l 6,0" stroke="#f00" stroke-width="0.5"/>
  </pattern>

  <pattern id="gr1_stripe" width="4" height="4"
           patternUnits="userSpaceOnUse" patternTransform="rotate(45 2 2)">
      <path d="M -1,2 l 6,0" stroke="green" stroke-width="0.5"/>
  </pattern>

  <linearGradient id="gr0_gyr" x1="0%" y1="0%" x2="0%" y2="100%">
    <stop offset=  "0%" style="stop-color:#f00; stop-opacity:.6"/>
    <stop offset= "50%" style="stop-color:#ff0; stop-opacity:.6"/>
    <stop offset="100%" style="stop-color:#0f0; stop-opacity:.6"/>
  </linearGradient>


</defs>

<rect x="48" y="19.2" width ="704" height ="121.6" rx="8" ry="8" fill="none" class="border"/>
<text id="svg_title" x="400" y="14.4" class="title" text-anchor="middle">Kuehlschrank: 2288W Spitze: 2353W, Verbrauch: 0.16kWh</text>
<text x="12" y="80" text-anchor="middle" class="ylabel" transform="rotate(270,12,80)">Verbrauch in kWh</text>
<text x="796" y="80" text-anchor="middle" class="y2label" transform="rotate(270,796,80)">Leistung in W</text>
<polyline class='SVGplot' points='77,19.2 77,23.2'/>
<polyline class='SVGplot' points='77,136.8 77,140.8'/>
<polyline class='SVGplot' points='106,19.2 106,23.2'/>
<polyline class='SVGplot' points='106,136.8 106,140.8'/>
<polyline class='SVGplot' points='135,19.2 135,23.2'/>
<polyline class='SVGplot' points='135,136.8 135,140.8'/>
<polyline class='SVGplot' points='165,19.2 165,23.2'/>
<polyline class='SVGplot' points='165,136.8 165,140.8'/>
<polyline class='SVGplot' points='194,19.2 194,23.2'/>
<polyline class='SVGplot' points='194,136.8 194,140.8'/>
<polyline class='SVGplot' points='223,19.2 223,23.2'/>
<polyline class='SVGplot' points='223,136.8 223,140.8'/>
<polyline class='SVGplot' points='253,19.2 253,23.2'/>
<polyline class='SVGplot' points='253,136.8 253,140.8'/>
<polyline class='SVGplot' points='282,19.2 282,23.2'/>
<polyline class='SVGplot' points='282,136.8 282,140.8'/>
<polyline class='SVGplot' points='311,19.2 311,23.2'/>
<polyline class='SVGplot' points='311,136.8 311,140.8'/>
<polyline class='SVGplot' points='341,19.2 341,23.2'/>
<polyline class='SVGplot' points='341,136.8 341,140.8'/>
<polyline class='SVGplot' points='370,19.2 370,23.2'/>
<polyline class='SVGplot' points='370,136.8 370,140.8'/>
<polyline class='SVGplot' points='399,19.2 399,23.2'/>
<polyline class='SVGplot' points='399,136.8 399,140.8'/>
<polyline class='SVGplot' points='429,19.2 429,23.2'/>
<polyline class='SVGplot' points='429,136.8 429,140.8'/>
<polyline class='SVGplot' points='458,19.2 458,23.2'/>
<polyline class='SVGplot' points='458,136.8 458,140.8'/>
<polyline class='SVGplot' points='487,19.2 487,23.2'/>
<polyline class='SVGplot' points='487,136.8 487,140.8'/>
<polyline class='SVGplot' points='517,19.2 517,23.2'/>
<polyline class='SVGplot' points='517,136.8 517,140.8'/>
<polyline class='SVGplot' points='546,19.2 546,23.2'/>
<polyline class='SVGplot' points='546,136.8 546,140.8'/>
<polyline class='SVGplot' points='575,19.2 575,23.2'/>
<polyline class='SVGplot' points='575,136.8 575,140.8'/>
<polyline class='SVGplot' points='605,19.2 605,23.2'/>
<polyline class='SVGplot' points='605,136.8 605,140.8'/>
<polyline class='SVGplot' points='634,19.2 634,23.2'/>
<polyline class='SVGplot' points='634,136.8 634,140.8'/>
<polyline class='SVGplot' points='663,19.2 663,23.2'/>
<polyline class='SVGplot' points='663,136.8 663,140.8'/>
<polyline class='SVGplot' points='693,19.2 693,23.2'/>
<polyline class='SVGplot' points='693,136.8 693,140.8'/>
<polyline class='SVGplot' points='722,19.2 722,23.2'/>
<polyline class='SVGplot' points='722,136.8 722,140.8'/>
<polyline class='SVGplot' points='751,19.2 751,23.2'/>
<polyline class='SVGplot' points='751,136.8 751,140.8'/>
<text x="0" y="156.8" class="ylabel">27.May</text>
<text x="165" y="156.8" class="ylabel" text-anchor="middle">02:15</text>
  <polyline points="165,19.2 165,140.8" class="hgrid"/>
<text x="282" y="156.8" class="ylabel" text-anchor="middle">06:15</text>
  <polyline points="282,19.2 282,140.8" class="hgrid"/>
<text x="399" y="156.8" class="ylabel" text-anchor="middle">10:15</text>
  <polyline points="399,19.2 399,140.8" class="hgrid"/>
<text x="517" y="156.8" class="ylabel" text-anchor="middle">14:15</text>
  <polyline points="517,19.2 517,140.8" class="hgrid"/>
<text x="634" y="156.8" class="ylabel" text-anchor="middle">18:15</text>
  <polyline points="634,19.2 634,140.8" class="hgrid"/>
<text x="751" y="156.8" class="ylabel" text-anchor="middle">22:15</text>
  <polyline points="751,19.2 751,140.8" class="hgrid"/>
<g>
  <polyline points="44,140 49,140" />
<text x="39.2" y="144" class="ylabel" text-anchor="end">0</text>
  <polyline points="44,117 49,117" />
<text x="39.2" y="121" class="ylabel" text-anchor="end">0.1</text>
  <polyline points="44,94 49,94" />
<text x="39.2" y="98" class="ylabel" text-anchor="end">0.2</text>
  <polyline points="44,70 49,70" />
<text x="39.2" y="74" class="ylabel" text-anchor="end">0.3</text>
  <polyline points="44,47 49,47" />
<text x="39.2" y="51" class="ylabel" text-anchor="end">0.4</text>
  <polyline points="44,23 49,23" />
<text x="39.2" y="27" class="ylabel" text-anchor="end">0.5</text>
</g>
<g>
  <polyline points="751,140 756,140" />
<text x="760.8" y="144" class="ylabel">0</text>
  <polyline points="751,114 756,114" />
  <polyline points="48,114 752,114" class="vgrid"/>
<text x="760.8" y="118" class="ylabel">500</text>
  <polyline points="751,89 756,89" />
  <polyline points="48,89 752,89" class="vgrid"/>
<text x="760.8" y="93" class="ylabel">1000</text>
  <polyline points="751,63 756,63" />
  <polyline points="48,63 752,63" class="vgrid"/>
<text x="760.8" y="67" class="ylabel">1500</text>
  <polyline points="751,37 756,37" />
  <polyline points="48,37 752,37" class="vgrid"/>
<text x="760.8" y="41" class="ylabel">2000</text>
</g>
<path id="line_1" decimals="2" x_off="1432757700" x_min="48" x_mul="0.00814805384196942" y_h="140.8" y_min="0" y_mul="233.846153846154" title="kWh" onclick="parent.svg_click(evt)" style="stroke-width:1" class="SVGplot l2" d="M 82,23 L 85,21 90,19 101,140 101,19 101,19 101,19 102,140 127,138 131,136 169,133 172,131 175,129 179,126 221,124 224,122 228,119 266,117 270,115 274,112 315,110 318,108 321,105 359,103 362,101 365,98 369,96 403,94 407,91 411,89 442,87 446,84 449,82 479,79 483,77 486,75 516,72 519,70 523,68 555,65 558,63 562,61 595,58 598,56 602,54 605,51 639,49 642,47 646,44 680,42 683,40 687,37 720,35 723,33 727,30 731,28 749,140 749,133 749,136 749,133 750,129 750,115 750,124 750,115 751,110 751,105 751,105 751,105 751,103"/>
<path id="line_0" decimals="0" x_off="1432757700" x_min="48" x_mul="0.00814805384196942" y_h="140.8" y_min="0" y_mul="0.0516787080322992" title="Kuehlschrank" onclick="parent.svg_click(evt)" style="stroke-width:2" class="SVGplot l0" d="M 50,140 L 53,140 55,140 56,140 57,140 63,140 64,140 65,140 66,140 68,140 71,140 72,140 73,140 78,140 79,140 80,135 81,135 81,136 81,136 81,136 82,136 83,136 84,136 85,136 86,136 87,136 88,136 89,136 90,136 90,140 90,140 90,140 91,140 92,140 94,140 95,140 96,140 97,140 100,140 102,140 104,140 107,140 111,140 112,140 115,140 118,140 122,140 124,135 125,135 125,136 125,136 125,136 126,136 127,136 128,136 129,136 130,136 131,136 132,136 133,136 134,140 138,140 141,140 142,140 143,140 148,140 149,140 158,140 160,140 161,140 162,140 168,140 168,135 168,135 168,135 169,135 170,136 171,136 172,136 173,136 174,136 175,136 176,136 177,136 178,136 179,136 179,137 179,137 179,137 180,137 181,137 181,140 181,140 181,140 184,140 185,140 194,140 196,140 198,140 199,140 204,140 207,140 208,140 211,140 212,140 218,140 219,135 220,135 220,136 220,136 220,136 221,136 222,136 223,136 224,136 225,136 226,136 227,136 228,136 229,136 230,140 232,140 233,140 234,140 240,140 243,140 245,140 250,140 252,140 255,140 256,140 257,140 259,140 265,135 266,135 266,136 266,136 266,136 267,136 268,136 269,136 270,136 271,136 272,136 273,136 274,136 275,136 276,136 277,136 277,137 277,140 277,140 278,140 280,140 281,140 283,140 284,140 285,140 286,140 289,140 290,140 291,140 292,140 297,140 298,140 300,140 301,140 309,140 310,140 311,140 312,140 315,135 316,135 316,136 316,136 316,136 317,136 318,136 319,136 320,136 321,136 322,136 323,136 324,136 325,136 325,140 325,140 325,140 331,140 332,140 333,140 334,140 335,140 336,140 338,140 340,140 342,140 344,140 345,140 346,139 346,140 346,140 346,140 347,140 348,140 349,140 352,140 354,140 358,135 359,135 360,136 361,136 362,136 363,136 364,136 365,136 366,136 367,136 368,136 369,136 370,136 370,140 370,140 370,140 373,140 374,140 375,140 380,140 386,140 387,139 387,140 387,140 387,140 388,139 388,140 388,140 388,140 389,140 392,140 394,140 395,140 396,140 397,140 399,140 401,135 402,135 402,136 402,136 402,136 403,136 404,136 405,136 406,136 407,136 408,136 409,136 410,136 411,136 412,136 413,140 414,140 415,140 417,140 418,140 419,140 420,140 423,140 424,140 425,140 426,140 427,140 429,140 430,140 431,140 432,140 433,140 435,140 438,139 438,140 438,140 438,140 439,140 440,140 441,140 441,135 441,135 441,135 442,135 443,136 444,136 445,136 446,136 447,136 448,136 449,136 450,136 451,136 452,140 453,140 454,140 455,140 456,139 456,140 456,140 456,140 458,140 459,140 460,140 462,140 462,139 462,139 462,139 463,140 467,140 475,140 476,140 477,140 478,140 478,135 478,135 478,135 479,135 479,136 479,136 479,136 480,136 481,136 482,136 483,136 484,136 485,136 486,136 487,136 488,136 488,140 488,140 488,140 489,140 490,140 491,140 493,140 497,140 499,139 499,140 499,140 499,140 503,140 504,140 506,140 508,140 509,140 511,140 512,140 513,140 514,140 515,135 516,136 517,136 518,136 519,136 520,136 521,136 522,136 523,136 524,136 525,136 526,136 526,140 526,140 526,140 527,140 529,140 536,140 539,140 541,140 546,140 547,140 548,140 550,140 551,140 552,140 553,140 554,140 555,135 556,135 556,136 556,136 556,136 557,136 558,136 559,136 560,136 561,136 562,136 563,136 564,136 565,136 565,140 565,140 565,140 567,140 569,140 571,140 572,140 577,140 578,140 581,140 582,140 583,140 584,140 585,140 587,140 590,140 592,140 593,140 594,140 594,128 594,128 594,128 595,135 596,135 596,136 596,136 596,136 597,136 598,136 599,136 600,136 601,136 602,136 603,136 604,136 605,136 606,136 607,136 607,137 607,137 607,137 608,140 608,139 608,139 608,139 609,140 610,140 615,140 616,140 617,140 618,140 620,140 621,140 622,140 625,140 626,140 628,140 630,140 631,140 632,140 636,140 637,140 638,135 639,135 639,136 639,136 639,136 640,136 641,136 642,136 643,136 644,136 645,136 646,136 647,136 648,136 649,136 649,137 649,137 649,137 650,140 651,140 653,140 654,140 661,140 666,140 667,140 668,140 669,140 677,140 678,140 679,140 679,135 679,135 679,135 680,135 681,136 682,136 683,136 684,136 685,136 686,136 687,136 688,136 689,136 690,140 691,140 692,140 695,140 696,140 699,140 702,140 703,140 706,140 707,140 708,140 711,140 714,140 718,140 719,140 720,135 721,135 721,136 721,136 721,136 722,136 723,136 724,136 725,136 726,136 727,136 728,136 729,136 730,136 731,137 732,137 733,140 735,140 736,140 737,140 740,140 741,140 747,140 749,49 749,19 749,23 749,23 750,24 751,24 751,140 751,140 751,140 751,22"/>
<text title="Kuehlschrank: Min:0 Max:2353 Last:2288" line_id="line_0" x="736" y="35.2" text-anchor="end" class="legend SVGplot l0">Kuehlschrank</text>
<text title="kWh: Min:0 Max:0.52 Last:0.16" line_id="line_1" x="736" y="51.2" text-anchor="end" class="legend SVGplot l2">kWh</text>
<script type='text/javascript'>if(typeof parent.window.svg_init == 'function') parent.window.svg_init('SVGPLOT_KU_PCA301_01_plot')</script>
</svg>
