<?xml version="1.0" encoding="UTF-8"?>
<!DOCTYPE svg>
<svg version="1.1" xmlns="http://www.w3.org/2000/svg" xmlns:xlink="http://www.w3.org/1999/xlink" id='SVGPLOT_KU_PCA301_01_plot'  width="800px" height="160px">
<style type="text/css"><![CDATA[
.background { fill:#FFFFE7; }

text       { font-family:Times; font-size:12px; }
text.title { font-size:16px; }
text.legend { cursor:pointer; }
circle#svgmarker { color:#278727; opacity:0.5; }

path.SVGplot     { stroke:black; fill:none; }
rect.SVGplot     { stroke:black; fill:none; }
polyline.SVGplot { stroke:black; fill:none; }
.border  { stroke:black; fill:url(#gr_bg); }
.vgrid   { stroke:gray;  stroke-dasharray:2,6; }
.hgrid   { stroke:gray;  stroke-dasharray:2,6; }
.pasted  { stroke:black; stroke-dasharray:1,1; }

.SVGplot.l0     { stroke:red;     }
.SVGplot.l1     { stroke:green;   }
.SVGplot.l2     { stroke:blue;    }
.SVGplot.l3     { stroke:magenta; }
.SVGplot.l4     { stroke:brown;   }
.SVGplot.l5     { stroke:black;   }
.SVGplot.l6     { stroke:olive;   }
.SVGplot.l7     { stroke:gray;    }
.SVGplot.l8     { stroke:yellow;  }
.SVGplot.l0fill { stroke:#f00; fill:url(#gr_0); }
.SVGplot.l1fill { stroke:#291; fill:url(#gr_1); }
.SVGplot.l2fill { stroke:#00f; fill:url(#gr_2); }
.SVGplot.l3fill { stroke:#f0f; fill:url(#gr_3); }
.SVGplot.l4fill { stroke:#ff0; fill:url(#gr_4); }
.SVGplot.l5fill { stroke:#0ff; fill:url(#gr_5); }
.SVGplot.l6fill { stroke:#000; fill:url(#gr_6); }
.SVGplot.l0dot  { stroke:red;   stroke-dasharray:2,4; }
.SVGplot.l1dot  { stroke:green; stroke-dasharray:2,4; }
.SVGplot.l0fill_stripe { stroke:red; fill:url(#gr0_stripe);}
.SVGplot.l1fill_stripe { stroke:green; fill:url(#gr1_stripe);}
.SVGplot.l0fill_gyr    { stroke:red; fill:url(#gr0_gyr);}

text.SVGplot.l0     { stroke:none; fill:red;     } 
text.SVGplot.l1     { stroke:none; fill:green;   } 
text.SVGplot.l2     { stroke:none; fill:blue;    }
text.SVGplot.l3     { stroke:none; fill:magenta; }
text.SVGplot.l4     { stroke:none; fill:brown;   }
text.SVGplot.l5     { stroke:none; fill:black;   }
text.SVGplot.l6     { stroke:none; fill:olive;   }
text.SVGplot.l7     { stroke:none; fill:gray;    }
text.SVGplot.l8     { stroke:none; fill:yellow;  }
text.SVGplot.l0fill { stroke:none; fill:#f00;    }
text.SVGplot.l1fill { stroke:none; fill:#291;    }
text.SVGplot.l2fill { stroke:none; fill:#00f;    }
text.SVGplot.l3fill { stroke:none; fill:#f0f;    }
text.SVGplot.l4fill { stroke:none; fill:#ff0;    }
text.SVGplot.l5fill { stroke:none; fill:#0ff;    }
text.SVGplot.l6fill { stroke:none; fill:#000;    }
text.SVGplot.l0dot  { stroke:none; fill:red;     } 
text.SVGplot.l1dot  { stroke:none; fill:green;   } 
text.SVGplot.l0fill_stripe {stroke:none; fill:red;  }
text.SVGplot.l1fill_stripe {stroke:none; fill:green;}
text.SVGplot.l0fill_gyr    {stroke:none; fill:red;  }

]]></style>
<!-- will be included in each svg plot -->
<defs>
  <linearGradient id="gr_bg" x1="0%" y1="0%" x2="0%" y2="100%">
    <stop offset="0%"   style="stop-color:#FFFFF7; stop-opacity:1"/>
    <stop offset="100%" style="stop-color:#FFFFC7; stop-opacity:1"/>
  </linearGradient>

  <linearGradient id="gr_0" x1="0%" y1="0%" x2="0%" y2="100%">
    <stop offset="0%"   style="stop-color:#f00; stop-opacity:.6"/>
    <stop offset="100%" style="stop-color:#f88; stop-opacity:.4"/>
  </linearGradient>

  <linearGradient id="gr_1" x1="0%" y1="0%" x2="0%" y2="100%">
    <stop offset="0%"   style="stop-color:#291; stop-opacity:.6"/>
    <stop offset="100%" style="stop-color:#8f7; stop-opacity:.4"/>
  </linearGradient>

  <linearGradient id="gr_2" x1="0%" y1="0%" x2="0%" y2="100%">
    <stop offset="0%"   style="stop-color:#00f; stop-opacity:.6"/>
    <stop offset="100%" style="stop-color:#88f; stop-opacity:.4"/>
  </linearGradient>

  <linearGradient id="gr_3" x1="0%" y1="0%" x2="0%" y2="100%">
    <stop offset="0%"   style="stop-color:#f0f; stop-opacity:.6"/>
    <stop offset="100%" style="stop-color:#f8f; stop-opacity:.4"/>
  </linearGradient>

  <linearGradient id="gr_4" x1="0%" y1="0%" x2="0%" y2="100%">
    <stop offset="0%"   style="stop-color:#ff0; stop-opacity:.6"/>
    <stop offset="100%" style="stop-color:#ff8; stop-opacity:.4"/>
  </linearGradient>

  <linearGradient id="gr_5" x1="0%" y1="0%" x2="0%" y2="100%">
    <stop offset="0%"   style="stop-color:#0ff; stop-opacity:.6"/>
    <stop offset="100%" style="stop-color:#8ff; stop-opacity:.4"/>
  </linearGradient>

  <linearGradient id="gr_6" x1="0%" y1="0%" x2="0%" y2="100%">
    <stop offset="0%"   style="stop-color:#000; stop-opacity:.6"/>
    <stop offset="100%" style="stop-color:#ccc; stop-opacity:.4"/>
  </linearGradient>

  <pattern id="gr0_stripe" width="4" height="4"
           patternUnits="userSpaceOnUse" patternTransform="rotate(-45 2 2)">
      <path d="M -1,2 l 6,0" stroke="#f00" stroke-width="0.5"/>
  </pattern>

  <pattern id="gr1_stripe" width="4" height="4"
           patternUnits="userSpaceOnUse" patternTransform="rotate(45 2 2)">
      <path d="M -1,2 l 6,0" stroke="green" stroke-width="0.5"/>
  </pattern>

  <linearGradient id="gr0_gyr" x1="0%" y1="0%" x2="0%" y2="100%">
    <stop offset=  "0%" style="stop-color:#f00; stop-opacity:.6"/>
    <stop offset= "50%" style="stop-color:#ff0; stop-opacity:.6"/>
    <stop offset="100%" style="stop-color:#0f0; stop-opacity:.6"/>
  </linearGradient>


</defs>

<rect x="48" y="19.2" width ="704" height ="121.6" rx="8" ry="8" fill="none" class="border"/>
<text id="svg_title" x="400" y="14.4" class="title" text-anchor="middle">Kuehlschrank: 2288W Spitze: 2353W, Verbrauch: 0.16kWh</text>
<text x="12" y="80" text-anchor="middle" class="ylabel" transform="rotate(270,12,80)">Verbrauch in kWh</text>
<text x="796" y="80" text-anchor="middle" class="y2label" transform="rotate(270,796,80)">Leistung in W</text>
<polyline class='SVGplot' points='77,19.2 77,23.2'/>
<polyline class='SVGplot' points='77,136.8 77,140.8'/>
<polyline class='SVGplot' points='106,19.2 106,23.2'/>
<polyline class='SVGplot' points='106,136.8 106,140.8'/>
<polyline class='SVGplot' points='135,19.2 135,23.2'/>
<polyline class='SVGplot' points='135,136.8 135,140.8'/>
<polyline class='SVGplot' points='165,19.2 165,23.2'/>
<polyline class='SVGplot' points='165,136.8 165,140.8'/>
<polyline class='SVGplot' points='194,19.2 194,23.2'/>
<polyline class='SVGplot' points='194,136.8 194,140.8'/>
<polyline class='SVGplot' points='223,19.2 223,23.2'/>
<polyline class='SVGplot' points='223,136.8 223,140.8'/>
<polyline class='SVGplot' points='253,19.2 253,23.2'/>
<polyline class='SVGplot' points='253,136.8 253,140.8'/>
<polyline class='SVGplot' points='282,19.2 282,23.2'/>
<polyline class='SVGplot' points='282,136.8 282,140.8'/>
<polyline class='SVGplot' points='311,19.2 311,23.2'/>
<polyline class='SVGplot' points='311,136.8 311,140.8'/>
<polyline class='SVGplot' points='341,19.2 341,23.2'/>
<polyline class='SVGplot' points='341,136.8 341,140.8'/>
<polyline class='SVGplot' points='370,19.2 370,23.2'/>
<polyline class='SVGplot' points='370,136.8 370,140.8'/>
<polyline class='SVGplot' points='399,19.2 399,23.2'/>
<polyline class='SVGplot' points='399,136.8 399,140.8'/>
<polyline class='SVGplot' points='429,19.2 429,23.2'/>
<polyline class='SVGplot' points='429,136.8 429,140.8'/>
<polyline class='SVGplot' points='458,19.2 458,23.2'/>
<polyline class='SVGplot' points='458,136.8 458,140.8'/>
<polyline class='SVGplot' points='487,19.2 487,23.2'/>
<polyline class='SVGplot' points='487,136.8 487,140.8'/>
<polyline class='SVGplot' points='517,19.2 517,23.2'/>
<polyline class='SVGplot' points='517,136.8 517,140.8'/>
<polyline class='SVGplot' points='546,19.2 546,23.2'/>
<polyline class='SVGplot' points='546,136.8 546,140.8'/>
<polyline class='SVGplot' points='575,19.2 575,23.2'/>
<polyline class='SVGplot' points='575,136.8 575,140.8'/>
<polyline class='SVGplot' points='605,19.2 605,23.2'/>
<polyline class='SVGplot' points='605,136.8 605,140.8'/>
<polyline class='SVGplot' points='634,19.2 634,23.2'/>
<polyline class='SVGplot' points='634,136.8 634,140.8'/>
<polyline class='SVGplot' points='663,19.2 663,23.2'/>
<polyline class='SVGplot' points='663,136.8 663,140.8'/>
<polyline class='SVGplot' points='693,19.2 693,23.2'/>
<polyline class='SVGplot' points='693,136.8 693,140.8'/>
<polyline class='SVGplot' points='722,19.2 722,23.2'/>
<polyline class='SVGplot' points='722,136.8 722,140.8'/>
<polyline class='SVGplot' points='751,19.2 751,23.2'/>
<polyline class='SVGplot' points='751,136.8 751,140.8'/>
<text x="0" y="156.8" class="ylabel">28.May</text>
<text x="165" y="156.8" class="ylabel" text-anchor="middle">17:15</text>
  <polyline points="165,19.2 165,140.8" class="hgrid"/>
<text x="282" y="156.8" class="ylabel" text-anchor="middle">18:15</text>
  <polyline points="282,19.2 282,140.8" class="hgrid"/>
<text x="399" y="156.8" class="ylabel" text-anchor="middle">19:15</text>
  <polyline points="399,19.2 399,140.8" class="hgrid"/>
<text x="517" y="156.8" class="ylabel" text-anchor="middle">20:15</text>
  <polyline points="517,19.2 517,140.8" class="hgrid"/>
<text x="634" y="156.8" class="ylabel" text-anchor="middle">21:15</text>
  <polyline points="634,19.2 634,140.8" class="hgrid"/>
<text x="751" y="156.8" class="ylabel" text-anchor="middle">22:15</text>
  <polyline points="751,19.2 751,140.8" class="hgrid"/>
<g>
  <polyline points="44,140 49,140" />
<text x="39.2" y="144" class="ylabel" text-anchor="end">0</text>
  <polyline points="44,115 49,115" />
<text x="39.2" y="119" class="ylabel" text-anchor="end">0.1</text>
  <polyline points="44,90 49,90" />
<text x="39.2" y="94" class="ylabel" text-anchor="end">0.2</text>
  <polyline points="44,64 49,64" />
<text x="39.2" y="68" class="ylabel" text-anchor="end">0.3</text>
  <polyline points="44,39 49,39" />
<text x="39.2" y="43" class="ylabel" text-anchor="end">0.4</text>
</g>
<g>
  <polyline points="751,140 756,140" />
<text x="760.8" y="144" class="ylabel">0</text>
  <polyline points="751,114 756,114" />
  <polyline points="48,114 752,114" class="vgrid"/>
<text x="760.8" y="118" class="ylabel">500</text>
  <polyline points="751,89 756,89" />
  <polyline points="48,89 752,89" class="vgrid"/>
<text x="760.8" y="93" class="ylabel">1000</text>
  <polyline points="751,63 756,63" />
  <polyline points="48,63 752,63" class="vgrid"/>
<text x="760.8" y="67" class="ylabel">1500</text>
  <polyline points="751,37 756,37" />
  <polyline points="48,37 752,37" class="vgrid"/>
<text x="760.8" y="41" class="ylabel">2000</text>
</g>
<path id="line_1" decimals="2" x_off="1432822500" x_min="48" x_mul="0.0325910837461229" y_h="140.8" y_min="0" y_mul="253.333333333333" title="kWh" onclick="parent.svg_click(evt)" style="stroke-width:1" class="SVGplot l2" d="M 124,52 L 137,49 153,47 166,44 301,41 314,39 329,36 465,34 476,31 494,29 625,26 639,24 654,21 668,19 740,140 742,135 743,133 744,128 745,123 746,117 747,112 748,107 749,102 750,100"/>
<path id="line_0" decimals="0" x_off="1432822500" x_min="48" x_mul="0.0325910837461229" y_h="140.8" y_min="0" y_mul="0.0516787080322992" title="Kuehlschrank" onclick="parent.svg_click(evt)" style="stroke-width:2" class="SVGplot l0" d="M 55,140 L 56,140 71,140 73,140 78,140 79,140 80,140 82,140 83,140 86,140 87,140 94,140 95,140 106,140 107,140 112,140 113,140 119,140 120,140 123,128 124,135 125,135 126,135 127,135 128,135 129,136 130,136 131,136 132,136 133,136 134,136 135,136 137,136 138,136 140,136 141,136 142,136 143,136 144,136 145,136 146,136 147,136 149,136 150,136 151,136 152,136 153,136 154,136 155,136 156,136 157,136 158,136 159,136 160,136 161,136 162,136 163,136 164,136 165,136 166,136 167,136 168,136 169,136 170,136 171,136 174,136 175,137 177,140 179,139 180,140 184,140 185,140 207,140 209,140 215,140 216,140 217,140 218,140 219,140 225,140 227,140 231,140 232,140 244,140 245,140 250,140 251,140 257,140 258,140 259,140 265,140 266,140 268,140 269,140 272,140 273,140 288,140 289,140 292,140 293,140 296,135 297,135 298,135 299,135 300,135 301,136 302,136 303,136 304,136 305,136 306,136 308,136 309,136 310,136 312,136 313,136 314,136 315,136 316,136 317,136 318,136 319,136 320,136 321,136 322,136 323,136 324,136 325,136 326,136 327,136 328,136 329,136 330,136 331,136 332,136 333,136 334,136 335,136 337,136 338,136 341,136 342,136 343,137 344,140 347,140 348,140 356,140 357,140 362,140 364,140 388,140 408,140 409,140 415,140 417,140 419,140 420,140 453,140 454,140 456,140 457,140 461,140 463,135 464,135 465,135 466,135 467,135 468,136 469,136 470,136 471,136 472,136 473,136 474,136 475,136 476,136 477,136 479,136 480,136 481,136 482,136 483,136 484,136 485,136 486,136 487,136 489,136 494,136 496,136 497,136 499,136 500,136 501,136 502,136 503,136 504,140 509,140 511,140 512,140 513,140 527,140 528,140 541,140 542,140 552,140 553,140 555,140 556,140 571,140 572,140 577,140 578,140 590,140 591,140 602,140 603,140 616,140 617,140 623,140 625,135 626,135 628,135 629,135 630,136 631,136 632,136 633,136 634,136 635,136 636,136 637,136 638,136 639,136 641,136 644,136 645,136 646,136 647,136 648,136 649,136 651,136 652,136 653,136 654,136 655,136 656,136 657,136 658,136 659,136 660,136 662,136 663,136 664,136 665,136 666,136 667,136 668,137 669,137 670,137 671,137 672,137 674,137 675,137 677,140 685,140 686,140 690,140 691,140 694,140 695,140 707,140 709,140 732,140 733,140 740,49 741,19 742,20 743,23 744,24 745,24 746,24 747,24 748,24 749,24 750,140 751,22"/>
<text title="Kuehlschrank: Min:0 Max:2353 Last:2288" line_id="line_0" x="736" y="35.2" text-anchor="end" class="legend SVGplot l0">Kuehlschrank</text>
<text title="kWh: Min:0 Max:0.48 Last:0.16" line_id="line_1" x="736" y="51.2" text-anchor="end" class="legend SVGplot l2">kWh</text>
<script type='text/javascript'>if(typeof parent.window.svg_init == 'function') parent.window.svg_init('SVGPLOT_KU_PCA301_01_plot')</script>
</svg>
